<svg width="640" height="480" xmlns="http://www.w3.org/2000/svg" xmlns:svg="http://www.w3.org/2000/svg">
 <!-- Created with SVG-edit - https://github.com/SVG-Edit/svgedit-->

 <g class="layer">
  <title>Layer 1</title>
  <rect fill="#353535" height="44" id="svg_52" stroke="#000000" width="17" x="291.6" y="253.2"/>
  <rect fill="#5656ff" height="0" id="svg_3" stroke="#000000" stroke-width="5" width="0" x="145" y="109"/>
  <ellipse cx="301.1" cy="170.4" fill="none" id="svg_29" rx="25" ry="36" stroke="#000000"/>
  <rect fill="#353535" height="102" id="svg_6" stroke="#000000" width="202" x="199.2" y="171.4"/>
  <rect fill="none" height="7" id="svg_30" stroke="#000000" stroke-width="2" width="14" x="283.6" y="149"/>
  <rect fill="none" height="7" id="svg_35" stroke="#000000" stroke-width="2" width="14" x="304" y="149"/>
  <line fill="none" id="svg_38" stroke="#000000" x1="298" x2="303" y1="151.4" y2="151.4"/>
  <path d="m301.27351,155.24786c-0.115,0.11992 -10.46458,14.5103 -1.03496,10.98466l1.03496,-10.98466z" fill="none" id="svg_44" stroke="#000000" transform="rotate(-6.1626 298.775 161.018)"/>
  <ellipse cx="-449" cy="94.9" fill="none" id="svg_49" rx="55" ry="15.5" stroke="#000000"/>
  <ellipse cx="-444" cy="291.4" fill="none" id="svg_50" rx="40" ry="14" stroke="#000000"/>
  <path d="m312.82367,149.77111l0,0c-2.25005,0 -4.07408,-2.5613 -4.07408,-5.72083c0,-3.15953 1.82403,-5.72083 4.07408,-5.72083l0,0c-1.28235,1.3505 -2.03704,3.46999 -2.03704,5.72083c0,2.25084 0.75469,4.37032 2.03704,5.72083z" fill="none" id="svg_51" stroke="#000000" transform="rotate(87.9547 310.787 144.05)"/>
  <path d="m270.89377,298.77558c46.63445,-1.00526 68.84133,11.5605 46.48641,-1.50789c-22.35493,-13.06839 -46.48641,1.50789 -46.48641,1.50789z" fill="#353535" id="svg_16" stroke="#000000" transform="rotate(-6.09314 298.517 297.538)"/>
 </g>
</svg>